# xmcd
#
# Track frame offsets:
#	150
#	16675
#	36805
#	54792
#	70920
#	90125
#	110092
#	134145
#	154847
#	178942
#	198357
#	218500
#	233147
#	253295
#	274947
#	291397
#
# Disc length: 4133 seconds
#
# Revision: 0
# Processed by: cddbd v1.5.2PL0 Copyright (c) Steve Scherf et al.
# Submitted via: audiograbber 1.83.01
#
DISCID=e8102310
DTITLE=The Emotions - Best Of My Love The Best Of
DYEAR=1996
DGENRE=
TTITLE0=The Emotions - Best of my love
TTITLE1=The Emotions - Flowers
TTITLE2=The Emotions - I don't wanna lose your love
TTITLE3=The Emotions - A feeling is
TTITLE4=The Emotions - Me for you
TTITLE5=The Emotions - Don't ask my neighbor
TTITLE6=The Emotions - Key to my heart
TTITLE7=The Emotions - Blessed
TTITLE8=The Emotions - Rejoice
TTITLE9=The Emotions - Love is right on
TTITLE10=The Emotions - All night, all right
TTITLE11=The Emotions - Smile
TTITLE12=The Emotions - Walking the line
TTITLE13=The Emotions - Boogie wonderland
TTITLE14=The Emotions - 'Cause I love you
TTITLE15=The Emotions - Yes, I am
EXTD=
EXTT0=
EXTT1=
EXTT2=
EXTT3=
EXTT4=
EXTT5=
EXTT6=
EXTT7=
EXTT8=
EXTT9=
EXTT10=
EXTT11=
EXTT12=
EXTT13=
EXTT14=
EXTT15=
PLAYORDER=
